<svg width="581" height="400" viewBox="0 0 581 400" fill="none" xmlns="http://www.w3.org/2000/svg">
<path d="M233.604 166.177C233.05 164.678 233.42 162.995 234.553 161.865L249.969 146.486C251.102 145.356 252.79 144.987 254.292 145.54L287.164 157.586C287.971 157.882 288.508 158.649 288.508 159.507V166.687C288.508 167.23 288.292 167.75 287.907 168.134L279.906 176.115C279.34 176.68 278.496 176.865 277.745 176.588L268.914 173.34L259.212 169.769C258.39 169.466 257.591 170.264 257.894 171.083L264.731 189.57C265.008 190.32 264.823 191.161 264.257 191.726L257.144 198.82C256.342 199.619 256.342 200.916 257.144 201.715L264.295 208.848C264.861 209.413 265.046 210.255 264.769 211.004L257.932 229.49C257.629 230.309 258.428 231.107 259.25 230.804L277.782 223.985C278.534 223.708 279.378 223.893 279.944 224.458L287.907 232.401C288.292 232.785 288.508 233.306 288.508 233.849V241.03C288.508 241.887 287.973 242.654 287.166 242.951L254.332 255.033C252.829 255.586 251.141 255.217 250.009 254.087L234.59 238.708C233.458 237.578 233.088 235.894 233.642 234.396L245.714 201.755C246.052 200.84 246.052 199.835 245.714 198.92L233.604 166.177Z" fill="#CE6533"/>
<path d="M346.81 234.395C347.364 235.894 346.994 237.577 345.862 238.707L330.445 254.086C329.313 255.216 327.625 255.586 326.122 255.033L293.251 242.986C292.443 242.69 291.906 241.923 291.906 241.065V233.886C291.906 233.343 292.122 232.822 292.507 232.438L300.509 224.457C301.075 223.892 301.919 223.708 302.67 223.984L311.5 227.232L321.202 230.804C322.024 231.106 322.824 230.309 322.52 229.489L315.683 211.002C315.406 210.253 315.591 209.411 316.158 208.846L323.271 201.752C324.072 200.953 324.072 199.657 323.271 198.857L316.12 191.724C315.554 191.159 315.368 190.317 315.646 189.568L322.483 171.082C322.786 170.263 321.987 169.466 321.165 169.768L302.632 176.587C301.881 176.864 301.037 176.679 300.471 176.114L292.507 168.171C292.123 167.787 291.906 167.266 291.906 166.724V159.542C291.906 158.685 292.442 157.918 293.248 157.622L326.083 145.539C327.585 144.986 329.273 145.356 330.406 146.485L345.824 161.865C346.956 162.994 347.327 164.678 346.772 166.177L334.7 198.818C334.362 199.732 334.362 200.737 334.7 201.652L346.81 234.395L346.81 234.395Z" fill="#CE6533"/>
</svg>
