<?xml version="1.0" encoding="utf-8"?>
<svg version="1.1" xmlns="http://www.w3.org/2000/svg" xmlns:xlink="http://www.w3.org/1999/xlink" viewBox="156 156 488 488" xml:space="preserve">
	<style type="text/css">.f {fill: #DE9E67;}</style>
	<g>
		<g>
			<path class="f" d="M468.4,311c5.7,0,11.2,0.6,16.6,1.6V172.4h-33.1v140.1C457.2,311.6,462.7,311,468.4,311z" />
			<path class="f" d="M418.8,326.1L283.6,187.4L256,215.1l138.7,135.1C401.1,340.7,409.3,332.5,418.8,326.1z" />
			<path class="f" d="M394.3,350.7L200,265.8l-16.1,38.9l197.4,77.4C383.6,370.8,388.1,360.1,394.3,350.7z" />
			<path class="f" d="M554.7,378.9l78.1-34.1l-9.2-22.3l-79.4,31.1C548.9,361.3,552.5,369.8,554.7,378.9z" />
			<path class="f" d="M516.4,325.1l43.5-106.9L532,206.7L487.2,313C497.8,315.3,507.6,319.5,516.4,325.1z" />
			<path class="f" d="M540.7,348.4l67.5-69.2L589.1,260l-69.2,67.5C527.9,333.2,535,340.3,540.7,348.4z" />
			<path class="f" d="M450.7,312.8l-63.2-155.4l-33.4,13.8l65.2,154.6C428.7,319.6,439.3,315.1,450.7,312.8z" />
			<path class="f"
				d="M468.4,488.7c-5.7,0-11.2-0.6-16.6-1.6v140.5h33.1V487.1C479.5,488.1,474,488.7,468.4,488.7z" />
			<path class="f" d="M487.2,486.6l45,106.6l27.8-11.5l-43.6-107.2C507.6,480.2,497.8,484.4,487.2,486.6z" />
			<path class="f" d="M519.8,472.2l69.4,67.6l19.2-19.2l-67.6-69.4C535,459.4,527.9,466.5,519.8,472.2z" />
			<path class="f" d="M381.3,417.5l-197.6,77.5l16.1,38.9l194.5-85C388.1,439.5,383.6,428.9,381.3,417.5z" />
			<path class="f" d="M419.3,473.9l-65.4,155l33.4,13.8l63.3-155.8C439.3,484.6,428.7,480.1,419.3,473.9z" />
			<path class="f" d="M394.6,449.4L255.7,584.8l27.7,27.7l135.4-138.9C409.3,467.1,401.1,458.9,394.6,449.4z" />
		</g>
		<polygon class="f" points="637.5,410.4 162.4,422.3 162.5,377.1 637.6,389.4 637.5,410.4 	" />
	</g>
</svg>